<?xml version="1.0" encoding="UTF-8"?>
<svg xmlns="http://www.w3.org/2000/svg" viewBox="0 0 1281 1025">
  <defs>
    <style>
      .cls-1 {
        fill: none;
      }

      .cls-1, .cls-2 {
        stroke: #000;
        stroke-miterlimit: 10;
      }

      .cls-3 {
        fill: #fff;
      }

      .cls-4 {
        fill: #edfdff;
      }

      .cls-5 {
        fill: #ffcd44;
      }

      .cls-2 {
        fill: #a2d9ff;
      }

      .cls-6 {
        fill: #f7931e;
      }

      .cls-7 {
        fill: #fbb03b;
      }

      .cls-7:hover {
        fill: white;
      }
    </style>
  </defs>
  <g id="Layer_3" data-name="Layer 3">
    <rect class="cls-2" x=".5" y=".5" width="1280" height="1024"/>
  </g>
  <g id="Layer_2" data-name="Layer 2">
    <g>
      <g>
        <path class="cls-3" d="M1051.75,403.88s23.74,23.24,6.64,49.81c-17.1,26.56-39.41,21.41-49.81,19.92-23.24-3.32-33.21-23.24-33.21-23.24,0,0-13.28-39.85,23.25-56.45,36.53-16.61,53.13,9.96,53.13,9.96ZM1038.47,450.37s9.96-29.89-16.61-33.21c-21.02-2.63-23.32,13.46-23.37,20.29-.42,1.53-1.08,7.86,12.32,17.86,15.52,11.58,27.66-4.94,27.66-4.94Z"/>
        <path class="cls-5" d="M1204.28,467.05c2.6,9.01,5.58,21.12,3.54,23.17-3.32,3.32-26.56,43.16-39.85,53.13-13.28,9.96-76.37,43.16-96.3,53.13-19.92,9.96-83.01,43.17-109.58,39.84-2.6-.32-5.23-.33-7.86-.08-1.99-.73-77.1-28.21-110.13-67.93-3.14-3.79-5.91-7.68-8.19-11.68-26.57-46.49-19.93-46.49-29.89-76.38-9.96-29.88,6.64-66.41,49.81-112.9s79.67-115.85,79.67-115.85c0,0,9.12,3,27,3,14,0,33,7,33,7l36.33,19.51s76.37,49.81,79.69,53.13,16.61,26.57,16.61,26.57l33.2,46.49c-16.6-16.6,39.85,49.81,39.85,49.81,0,0,1.47,4.42,3.1,10.04ZM1058.39,453.69c17.1-26.57-6.64-49.81-6.64-49.81,0,0-16.6-26.57-53.13-9.96-36.53,16.6-23.25,56.45-23.25,56.45,0,0,9.97,19.92,33.21,23.24,10.4,1.49,32.71,6.64,49.81-19.92Z"/>
        <path class="cls-5" d="M1154.69,334.14c16.6,6.65,23.25,36.53,23.25,36.53,0,0,0,53.13-16.61,36.53l-33.2-46.49v-27.04s9.96-6.17,26.56.47Z"/>
        <path d="M998.49,437.45c.05-6.83,2.35-22.92,23.37-20.29,26.57,3.32,16.61,33.21,16.61,33.21,0,0-12.14,16.52-27.66,4.94-13.4-10-12.74-16.33-12.32-17.86Z"/>
        <path class="cls-6" d="M479.06,392.64c2.21-5.18,5.74-11.75,11.45-18.59l-.13-.1c.59-.43,1.68-1.31,3.8-3.28,24.12-22.35,45.55-48.75,56.86-59.77.18-.17-.02-.23-.55-.2,1.24-1.52,9.56-11.52,24.21-24.85,4.67-4.25,9.99-8.84,15.92-13.6,4.12-3.31,8.54-6.7,13.24-10.11,2.25-1.63,4.57-3.27,6.95-4.9h0c3.83-2.64,7.84-5.28,12.01-7.89,3.87-2.43,7.88-4.83,12.03-7.19,4.47-2.54,9.12-5.03,13.92-7.45,4.23-2.14,8.58-4.22,13.06-6.22,5.21-2.33,10.59-4.55,16.13-6.65,5.04-1.91,10.22-3.71,15.52-5.38,4.48-1.42,9.05-2.74,13.72-3.95,5.86-1.53,11.86-2.9,18-4.07,4.68-.89,9.44-1.68,14.28-2.34,6.34-.87,12.81-1.53,19.42-1.94,5.12-.34,10.32-.53,15.6-.57,4.6-.04,9.27.04,13.99.25,4.61.2,9.26.51,13.98.96,7.68.71,15.5,1.76,23.47,3.16,0,0-6.64,19.92,29.89,26.56,36.53,6.65,79.67,16.98,79.67,16.98,0,0-36.5,69.36-79.67,115.85s-59.77,83.02-49.81,112.9c9.96,29.89,3.32,29.89,29.89,76.38,2.28,4,5.05,7.89,8.19,11.68l-.76.63-7.43-8.99s-16.61,49.81-26.57,56.45c-9.96,6.64-53.13,39.85-53.13,39.85,0,0-36.53,23.24-63.09,26.56-5.06.63-5.9,1.74-3.96,3.14l-.75,1c-1.76-1.3-3.51-2.68-5.25-4.14-1.23-1.03-2.46-2.13-3.68-3.29-.37-.56-.7-1.12-.97-1.69-4-8.45-17.54-23.68-31.59-37.26-7.45-8.77-15.17-16.47-23.54-20.85-.39-.21-.78-.41-1.17-.61-5.88-4.35-10.33-6.78-12.03-6.06-9.57-4.71-18.5-8.95-25.89-13.19-4.1-2.72-8.35-5.64-12.48-8.56-.01,0-.01,0-.01,0-.54-.47-1.06-.96-1.55-1.45-3.42-3.42-7.63-6.07-11.68-8.06-.01,0-.02,0-.03-.01-8.89-6.5-15.32-11.42-15.32-11.42l-13.28-49.81-12.82,6.2-9.34,10.51-.62-.55c13.72-30.33,7.91-25.77,9.96-29.88,6.64-13.28,0-9.96,0-23.25,0-1.23-.76-3.56-2.11-6.28-2.29-4.64-6.31-10.4-11.17-13.64-3.25-2.17-4.63-3.94-7.26-8.2-1.97-3.2-4.64-7.81-9.34-15.04-.55-.84-1.07-1.64-1.57-2.4-8.67-13.16-10.85-14.84-11.72-20.85-1.05-7.33,1-13.23,3.32-19.92.48-1.36,1.06-2.91,1.79-4.6Z"/>
        <path class="cls-6" d="M844.1,568.31c33.03,39.72,108.14,67.2,110.13,67.93-24.26,2.32-48.59,26.65-48.59,26.65l-76.37,29.89-72.6,12.62-.46-2.66s33.21-19.93,56.45-49.81c23.25-29.89,43.17-46.49,43.17-56.45v-12.43l-12.49-15.11.76-.63Z"/>
        <path class="cls-4" d="M855.83,751.18c6.64,25.21,3.32,61.14-3.32,61.14s-26.57,6.64-43.17,16.6c-16.6,9.97-6.12,47.14-6.12,47.14,0,0,9.44,39.2,22.72,32.56,13.29-6.64,19.93,43.17,16.61,46.49s3.32,36.53-3.32,46.49-16.61,6.64-36.01,11.51c-19.41,4.88-3.84-38.08-20.44-31.44-16.61,6.65-39.85-6.64-46.49-16.6-6.65-9.96-16.61-3.32-19.93,3.32s-6.64,23.25-13.28,16.61c-6.64-6.65-36.53-3.33-36.19,6.03.33,9.36-13.62,13.89-26.9,20.53-13.29,6.64-23.25-9.96-39.97-13.28s-36.41,3.32-49.69,0-33.21-36.53-39.85-53.13c-6.64-16.61-19.92-23.25-23.24-16.61-3.32,6.65-19.93,9.97-29.89,3.32-9.96-6.64-26.57-6.64-59.77,3.33-33.21,9.96-76.38,3.32-99.62-3.33-23.25-6.64-23.25-33.2-26.57-43.16-3.32-9.97,3.32-23.25-3.32-36.53-6.64-13.28-23.24-9.96-26.56,3.32s-9.97,36.53-19.93,43.17-29.88-19.93-43.17-33.21c-13.28-13.28-19.92-3.32-36.52,9.96-16.61,13.29-43.17-13.28-49.81-29.88-6.65-16.61,16.6-23.25-3.32-39.85-19.93-16.6-19.93-23.25-13.29-33.21,6.64-9.96,13.29,0,33.21,6.64,19.92,6.64,13.28,6.64,23.24-13.28,9.97-19.92,0-16.6-9.96-33.21-9.96-16.6,6.64-16.6,13.29-19.92,6.64-3.32,19.92-16.6,9.96-26.24-9.96-9.63,0-20.25,0-30.21s13.28-23.25,29.17-27.9c15.9-4.66,10.68-18.59,17.32-25.23s33.2,6.64,43.17,16.6c9.96,9.96,19.92,9.96,26.56,6.64s23.25-13.28,19.92-19.92c-2.09-4.18-2.87-12.33-.66-18.61l.66-1.32s19.93-13.28,16.61-23.24c-.22-.66-.35-1.33-.4-2,.12-.44.26-.88.4-1.32,1.07-3.33,5.41-6.76,6.64-9.96.38-1,.83-1.99,1.34-2.98,5.3-5.15,12.31-10.68,18.58-16.95,2.33-2.32,4.96-3.94,7.71-5.02.1-.03.19-.07.28-.1.67-.24,1.34-.46,2.02-.66.03-.02.06-.03.09-.03,12.17-3.41,25.76,2.21,26.41,2.48.01.01.02.01.02.01l23.25-13.28s9.96,13.28,19.92,3.32c.37-.37.76-.7,1.15-1l.09-.06c.6-.38,1.22-.74,1.86-1.05l.06-.03c3.79-1.54,8.08-.15,11.94,2.15,0,0,.02.02.02.02,2,1.6,4.16,3.52,6.82,5.19,2.8,2.55,4.62,4.74,4.62,4.74,0,0,2.58-.32,6.44-.97,4.45.44,9.92-.12,16.81-2.35,2.53-.82,5.09-2.35,7.53-3.76.01,0,.02-.01.03-.01,2.05-.82,3.89-1.7,5.39-2.66,1.32-.43,2.55-.57,3.65-.21.73.23,1.43.52,2.1.85,8.76,7.29,17.83,39,17.83,39l6.3-7.09c4.41-1.5,8.22.65.34,20.37-13.28,33.21,0,0,46.49,6.64,0,0,7.13,1.43,14.85,5.22.01.01.02.01.03.01,4.03,2.96,8.56,6.23,13.23,9.51,0,0,0,0,.01,0,3.3,2.94,7.55,5.75,12.48,8.56,12.28,8.18,23.2,14.53,25.81,13.22.02-.01.05-.03.08-.03,3.92,1.93,7.95,3.94,12.03,6.06,6.96,5.14,15.93,12.98,24.71,21.46,11.07,13.04,21.53,28.46,32.56,38.95,2.03,2.97,5.56,5.71,10,8.21,18.02,13.05,37.72,18.68,73.37,21.65,39.85,3.32,73.06-13.28,73.06-13.28,0,0,13.28,29.88,19.92,55.08Z"/>
        <path class="cls-5" d="M855.83,584.05v12.43c0,9.96-19.92,26.56-43.17,56.45-23.24,29.88-56.45,49.81-56.45,49.81,0,0-58.78-10.89-67.05-16.79-1.94-1.4-1.1-2.51,3.96-3.14,26.56-3.32,63.09-26.56,63.09-26.56,0,0,43.17-33.21,53.13-39.85,9.96-6.64,26.57-56.45,26.57-56.45l7.43,8.99,12.49,15.11Z"/>
        <path class="cls-6" d="M815.98,151.51c9.96,39.84,9.96,56.45,9.96,56.45-7.97-1.4-15.79-2.45-23.47-3.16l.03-.3c26.9-37.34-49.78-147.04-50.8-148.5,8.65,5.47,14.47,9.17,14.47,9.17,0,0,39.85,46.49,49.81,86.34Z"/>
        <path class="cls-7" d="M751.7,56c1.02,1.46,77.7,111.16,50.8,148.5l-.03.3c-4.72-.45-9.37-.76-13.98-.96v-.34c16.49-52.75-61.35-162.07-62.45-163.61,9.36,5.84,18.48,11.58,25.65,16.1h.01Z"/>
        <path class="cls-6" d="M726.04,39.89c1.1,1.54,78.94,110.86,62.46,163.61v.34c-4.73-.21-9.4-.29-14-.25v-.09c-14.52-99.62-99-192.82-99-192.82,1.47.21,2.92.66,4.33,1.36,6.43,3.21,26.85,15.75,46.21,27.84h0Z"/>
        <path class="cls-7" d="M774.5,203.5v.09c-5.28.04-10.48.23-15.6.57l-.04-.58c-10.64-90.72-103.32-185.23-103.32-185.23h-.01c5.62-4.74,13-8.73,19.97-7.67,0,0,84.48,93.2,99,192.82Z"/>
        <path class="cls-6" d="M758.86,203.58l.04.58c-6.61.41-13.08,1.07-19.42,1.94-16.74-84.87-99.19-166.23-99.19-166.23,3.32-5.41,5.49-9.52,6.34-11.23,1.29-2.58,4.58-6.66,8.9-10.3h.01s92.68,94.52,103.32,185.24Z"/>
        <path class="cls-7" d="M739.48,206.1c-4.84.66-9.6,1.45-14.28,2.34-27.48-75.3-101.22-143.44-102.37-144.5,7.39-8.57,13.32-17.32,17.46-24.07,0,0,82.45,81.36,99.19,166.23Z"/>
        <path class="cls-6" d="M725.2,208.44c-6.14,1.17-12.14,2.54-18,4.07-45.69-88.43-108.87-126.72-108.87-126.72,9.28-5.88,17.53-13.78,24.5-21.85,1.15,1.06,74.89,69.2,102.37,144.5Z"/>
        <path class="cls-7" d="M707.2,212.51c-4.67,1.21-9.24,2.53-13.72,3.95-30.87-58.53-124.14-114.57-124.14-114.57,5.76-4.35,11.59-7.78,17.52-10.16,3.97-1.59,7.8-3.6,11.47-5.94,0,0,63.18,38.29,108.87,126.72Z"/>
        <path class="cls-6" d="M693.48,216.46c-5.3,1.67-10.48,3.47-15.52,5.38-28.45-49.2-128.59-101.24-128.59-101.24,6.59-7.32,13.23-13.64,19.97-18.71,0,0,93.27,56.04,124.14,114.57Z"/>
        <path class="cls-7" d="M677.96,221.84c-5.54,2.1-10.92,4.32-16.13,6.65-27.99-42.56-125.42-92.3-125.42-92.3h0c4.31-5.58,8.63-10.8,12.97-15.59,0,0,100.14,52.04,128.59,101.24Z"/>
        <path class="cls-6" d="M661.83,228.49c-4.48,2-8.83,4.08-13.06,6.22h0c-24.42-33.03-126.09-79.68-126.09-79.68,4.59-6.63,9.16-12.94,13.72-18.84h0s97.43,49.74,125.42,92.3Z"/>
        <path class="cls-7" d="M648.77,234.7h0c-4.8,2.43-9.45,4.92-13.92,7.46-21.73-28.89-126-66.4-126-66.4,4.64-7.18,9.25-14.11,13.83-20.73,0,0,101.67,46.65,126.09,79.67Z"/>
        <path class="cls-6" d="M634.85,242.16c-4.15,2.36-8.16,4.76-12.03,7.19-10.52-18.38-124.65-56.85-124.65-56.85,3.59-5.69,7.14-11.29,10.68-16.74,0,0,104.27,37.51,126,66.4Z"/>
        <path class="cls-7" d="M622.82,249.35c-4.17,2.61-8.18,5.25-12.01,7.88-2.67-17.13-124.66-44.72-124.66-44.72h-.02c1.34-2.66,2.82-5.29,4.43-7.87,2.56-4.09,5.09-8.14,7.61-12.14,0,0,114.13,38.47,124.65,56.85Z"/>
        <path class="cls-6" d="M610.81,257.23h0c-2.38,1.64-4.7,3.28-6.95,4.91-16.2-15.55-127.64-19.98-127.64-19.98,1.88-9.96,5.02-20,9.91-29.66h.02s121.99,27.6,124.66,44.73Z"/>
        <path class="cls-7" d="M603.86,262.14c-4.7,3.41-9.12,6.8-13.24,10.11-25.95-15.3-115.45-.22-116.71,0-.23-9.58.36-19.78,2.31-30.09,0,0,111.44,4.43,127.64,19.98Z"/>
        <path class="cls-6" d="M590.62,272.25c-5.93,4.76-11.25,9.35-15.92,13.6-35.39,1.51-96.23,22.54-96.23,22.54-2.17-9.63-4.23-22.22-4.56-36.14,1.26-.22,90.76-15.3,116.71,0Z"/>
        <path class="cls-7" d="M574.7,285.85c-14.65,13.33-22.97,23.33-24.21,24.85-6.77.47-67.08,16.94-66.57,16.8,0,0-2.8-7.36-5.45-19.11,0,0,60.84-21.03,96.23-22.54Z"/>
        <path class="cls-7" d="M517.12,483.57c0,13.29,6.64,9.97,0,23.25-2.05,4.11,3.76-.45-9.96,29.88l.62.55-10.92,12.29c-3.01,1.03-6.3,3.77-6.3,3.77,0,0-2.96-28.48-17.83-35.68-1.85-1.55-3.69-2.01-5.42-.85l-.33.21c-1.67.54-3.49,1.56-5.39,2.66-.01,0-.02.01-.03.01-7.5,2.98-17.77,5.01-24.34,6.11-4.61-.44-8.14-1.95-11.06-3.77-1.91-1.75-4.27-3.68-6.82-5.19,0,0-.01-.02-.02-.02-2.79-2.24-5.29-3.86-8.46-3.33-1.23.21-2.38.63-3.48,1.18l-.06.03c-.64.26-1.26.61-1.86,1.05l-.09.06c-2.92,1.83-5.43,4.07-7.79,4.32-6.32.67-7.78-7.25-13.28-6.64-14.75,1.65-23.25,13.28-23.25,13.28,0,0-.01,0-.02-.01-.39-.32-8.51-6.55-23.22-3.31-1.07.24-2.14.51-3.19.83-.03,0-.06.01-.09.03-.68.18-1.35.41-2.02.66-.09.03-.18.07-.28.1-11.55,4.12-21.53,12.68-26.29,21.97-5.18,5.02-8.74,9.66-8.38,14.26-2.51,8.53-2.65,16.3-9.56,18.6-3.69,1.23-6.01,4.27-7.31,7.96l-5.98,11.97-16.6,6.64-13.28-6.64,2.5-18.61,4.14-17.92,1.05-3.52h0c1.7-.98,154.71-88.71,262.48-82.46,1.35,2.72,2.11,5.05,2.11,6.28Z"/>
        <path class="cls-6" d="M503.84,463.65c4.86,3.24,8.88,9,11.17,13.64-107.77-6.25-260.78,81.48-262.48,82.46l8.9-29.69,26.57-23.24c33.2-26.57,208.5-51.32,208.5-51.32l.08-.05c2.63,4.26,4.01,6.03,7.26,8.2Z"/>
        <path class="cls-7" d="M496.58,455.45l-.08.05s-175.3,24.75-208.5,51.32l-56.46-26.57s-16.6-36.52-33.2-36.52c-6.6,0-15.31-3.68-23.4-8.11h0s269.31,26.55,310.73,2.39c.5.76,1.02,1.56,1.57,2.4,4.7,7.23,7.37,11.84,9.34,15.04Z"/>
        <path class="cls-6" d="M490.38,373.95l.13.1c-5.71,6.84-9.24,13.41-11.45,18.59-36.33,11.09-337.59-72.41-337.59-72.41h-.01c6.61-14.4,7.07-9.33,7.07-9.33h51.24s45.06,6.64,51.7,9.96,63.09,13.28,63.09,13.28l73.06,16.61s33.2,9.96,53.13,19.92c20.67,10.34,37.54,11.37,49.18,3.59.11-.07.25-.16.45-.31Z"/>
        <path class="cls-7" d="M479.06,392.64c-.73,1.69-1.31,3.24-1.79,4.6-2.32,6.69-4.37,12.59-3.32,19.92-86.33,29.89-348.2-55.33-348.2-55.33h-.02c.21-1.21.53-2.4.94-3.55,6.85-19.27,11.55-31,14.79-38.05h.01s301.26,83.5,337.59,72.41Z"/>
        <path class="cls-6" d="M473.95,417.16c.87,6.01,3.05,7.69,11.72,20.85-41.42,24.16-310.73-2.4-310.73-2.4h0c-12.25-6.7-23.09-15.13-23.09-15.13,0,0-30.61-34.51-26.12-58.65h.02s261.87,85.22,348.2,55.33Z"/>
      </g>
      <g>
        <path class="cls-1" d="M571.8,591.29c-.54-.47-1.06-.96-1.55-1.45-3.42-3.42-7.63-6.07-11.68-8.06"/>
        <path class="cls-1" d="M332.23,525.04c-11.55,4.12-21.53,12.68-26.29,21.97-.51.99-.96,1.98-1.34,2.98-1.23,3.2-5.57,6.63-6.64,9.96-.14.44-.28.88-.4,1.32-2.51,8.53-2.65,16.3-9.56,18.6-3.69,1.23-6.01,4.27-7.31,7.96-2.21,6.28-1.43,14.43.66,18.61,3.33,6.64-13.28,16.6-19.92,19.92s-16.6,3.32-26.56-6.64c-9.97-9.96-36.53-23.24-43.17-16.6s-1.42,20.57-17.32,25.23c-15.89,4.65-29.17,17.94-29.17,27.9s-9.96,20.58,0,30.21c9.96,9.64-3.32,22.92-9.96,26.24-6.65,3.32-23.25,3.32-13.29,19.92,9.96,16.61,19.93,13.29,9.96,33.21-9.96,19.92-3.32,19.92-23.24,13.28-19.92-6.64-26.57-16.6-33.21-6.64-6.64,9.96-6.64,16.61,13.29,33.21,19.92,16.6-3.33,23.24,3.32,39.85,6.64,16.6,33.2,43.17,49.81,29.88,16.6-13.28,23.24-23.24,36.52-9.96,13.29,13.28,33.21,39.85,43.17,33.21s16.61-29.89,19.93-43.17,19.92-16.6,26.56-3.32c6.64,13.28,0,26.56,3.32,36.53,3.32,9.96,3.32,36.52,26.57,43.16,23.24,6.65,66.41,13.29,99.62,3.33,33.2-9.97,49.81-9.97,59.77-3.33,9.96,6.65,26.57,3.33,29.89-3.32,3.32-6.64,16.6,0,23.24,16.61,6.64,16.6,26.57,49.81,39.85,53.13s32.97-3.32,49.69,0,26.68,19.92,39.97,13.28c13.28-6.64,27.23-11.17,26.9-20.53-.34-9.36,29.55-12.68,36.19-6.03,6.64,6.64,9.96-9.97,13.28-16.61s13.28-13.28,19.93-3.32c6.64,9.96,29.88,23.25,46.49,16.6,16.6-6.64,1.03,36.32,20.44,31.44,19.4-4.87,29.37-1.55,36.01-11.51s0-43.17,3.32-46.49-3.32-53.13-16.61-46.49c-13.28,6.64-22.72-32.56-22.72-32.56,0,0-10.48-37.17,6.12-47.14,16.6-9.96,36.53-16.6,43.17-16.6s9.96-35.93,3.32-61.14c-6.64-25.2-19.92-55.08-19.92-55.08,0,0-33.21,16.6-73.06,13.28-35.65-2.97-55.35-8.6-73.37-21.65-.36-.25-.72-.51-1.07-.78-1.76-1.3-3.51-2.68-5.25-4.14-1.23-1.03-2.46-2.13-3.68-3.29-11.03-10.49-21.49-25.91-32.56-38.95-7.45-8.77-15.17-16.47-23.54-20.85-.39-.21-.78-.41-1.17-.61-4.08-2.12-8.11-4.13-12.03-6.06-9.57-4.71-18.5-8.95-25.89-13.19-4.93-2.81-9.18-5.62-12.48-8.56"/>
        <path class="cls-1" d="M334.53,524.28c-.68.2-1.35.42-2.02.66"/>
        <path class="cls-1" d="M361.03,526.73c-.39-.32-8.51-6.55-23.22-3.31-1.07.24-2.14.51-3.19.83"/>
        <path class="cls-1" d="M405.37,515.78c-2.92,1.83-5.43,4.07-7.79,4.32-6.32.67-7.78-7.25-13.28-6.64-14.75,1.65-23.25,13.28-23.25,13.28"/>
        <path class="cls-1" d="M407.32,514.67c-.64.31-1.26.67-1.86,1.05"/>
        <path class="cls-1" d="M419.32,516.79c-2.79-2.24-5.29-3.86-8.46-3.33-1.23.21-2.38.63-3.48,1.18"/>
        <path class="cls-1" d="M461.56,519.66c-2.44,1.41-5,2.94-7.53,3.76-6.89,2.23-12.36,2.79-16.81,2.35-4.61-.44-8.14-1.95-11.06-3.77-2.66-1.67-4.82-3.59-6.82-5.19"/>
        <path class="cls-1" d="M558.54,581.77c-7.72-3.79-14.85-5.22-14.85-5.22-46.49-6.64-59.77,26.57-46.49-6.64,7.88-19.72,4.07-21.87-.34-20.37-3.01,1.03-6.3,3.77-6.3,3.77,0,0-2.96-28.48-17.83-35.68-.67-.33-1.37-.62-2.1-.85-1.1-.36-2.33-.22-3.65.21-1.67.54-3.49,1.56-5.39,2.66"/>
        <path class="cls-1" d="M141.47,320.23s301.26,83.5,337.59,72.41c.15-.04.3-.09.44-.14"/>
        <path class="cls-1" d="M125.75,361.83s261.87,85.22,348.2,55.33"/>
        <path class="cls-1" d="M174.94,435.61s269.31,26.56,310.73,2.4"/>
        <path class="cls-1" d="M496.5,455.5s-175.3,24.75-208.5,51.32"/>
        <path class="cls-1" d="M252.53,559.75c1.7-.98,154.71-88.71,262.48-82.46"/>
        <path class="cls-1" d="M843.34,568.94l-7.43-8.99s-16.61,49.81-26.57,56.45c-9.96,6.64-53.13,39.85-53.13,39.85,0,0-36.53,23.24-63.09,26.56-5.06.63-5.9,1.74-3.96,3.14,8.27,5.9,67.05,16.79,67.05,16.79,0,0,33.21-19.93,56.45-49.81,23.25-29.89,43.17-46.49,43.17-56.45v-12.43l-12.49-15.11Z"/>
        <path class="cls-1" d="M998.49,437.45c.07-.25.13-.37.13-.37"/>
        <path class="cls-1" d="M998.49,437.45c.05-6.83,2.35-22.92,23.37-20.29,26.57,3.32,16.61,33.21,16.61,33.21,0,0-12.14,16.52-27.66,4.94-13.4-10-12.74-16.33-12.32-17.86Z"/>
        <path class="cls-1" d="M998.62,440.41s-.14-1.16-.13-2.96"/>
        <path class="cls-1" d="M751.7,56c8.65,5.47,14.47,9.17,14.47,9.17,0,0,39.85,46.49,49.81,86.34,9.96,39.84,9.96,56.45,9.96,56.45,0,0-6.64,19.92,29.89,26.56,36.53,6.65,79.67,16.98,79.67,16.98,0,0,9.12,3,27,3,14,0,33,7,33,7l36.33,19.51s76.37,49.81,79.69,53.13,16.61,26.57,16.61,26.57v-27.04s9.96-6.17,26.56.47c16.6,6.65,23.25,36.53,23.25,36.53,0,0,0,53.13-16.61,36.53-16.6-16.6,39.85,49.81,39.85,49.81,0,0,1.47,4.42,3.1,10.04,2.6,9.01,5.58,21.12,3.54,23.17-3.32,3.32-26.56,43.16-39.85,53.13-13.28,9.96-76.37,43.16-96.3,53.13-19.92,9.96-83.01,43.17-109.58,39.84-2.6-.32-5.23-.33-7.86-.08-24.26,2.32-48.59,26.65-48.59,26.65l-76.37,29.89-72.6,12.62-3.78.66s-42.18-6.39-63.41-18.33c-4.44-2.5-7.97-5.24-10-8.21-.37-.56-.7-1.12-.97-1.69-4-8.45-17.54-23.68-31.59-37.26-8.78-8.48-17.75-16.32-24.71-21.46-5.88-4.35-10.33-6.78-12.03-6.06-.03,0-.06.02-.08.03-2.61,1.31-13.53-5.04-25.81-13.22-4.1-2.72-8.35-5.64-12.48-8.56-.01,0-.01,0-.01,0-4.67-3.28-9.2-6.55-13.23-9.51-.01,0-.02,0-.03-.01-8.89-6.5-15.32-11.42-15.32-11.42l-13.28-49.81-12.82,6.2-9.34,10.51-10.92,12.29-6.3,7.09s-9.07-31.71-17.83-39c-1.85-1.55-3.69-2.01-5.42-.85l-.33.21c-1.5.96-3.34,1.84-5.39,2.66-.01,0-.02.01-.03.01-7.5,2.98-17.77,5.01-24.34,6.11-3.86.65-6.44.97-6.44.97,0,0-1.82-2.19-4.62-4.74-1.91-1.75-4.27-3.68-6.82-5.19,0,0-.01-.02-.02-.02-3.86-2.3-8.15-3.69-11.94-2.15l-.06.03c-.64.26-1.26.61-1.86,1.05l-.09.06c-.39.3-.78.63-1.15,1-9.96,9.96-19.92-3.32-19.92-3.32l-23.25,13.28s-.01,0-.02-.01c-.65-.27-14.24-5.89-26.41-2.48-.03,0-.06.01-.09.03-.68.18-1.35.41-2.02.66-.09.03-.18.07-.28.1-2.75,1.08-5.38,2.7-7.71,5.02-6.27,6.27-13.28,11.8-18.58,16.95-5.18,5.02-8.74,9.66-8.38,14.26.05.67.18,1.34.4,2,3.32,9.96-16.61,23.24-16.61,23.24l-.66,1.32-5.98,11.97-16.6,6.64-13.28-6.64,2.5-18.61,4.14-17.92,1.05-3.52h0l8.9-29.69,26.57-23.24-56.46-26.57s-16.6-36.52-33.2-36.52c-6.6,0-15.31-3.68-23.4-8.11-12.25-6.71-23.09-15.14-23.09-15.14,0,0-30.61-34.51-26.12-58.65.21-1.21.53-2.4.94-3.55,6.85-19.27,11.55-31,14.79-38.05,6.61-14.4,7.07-9.33,7.07-9.33h51.24s45.06,6.64,51.7,9.96,63.09,13.28,63.09,13.28l73.06,16.61s33.2,9.96,53.13,19.92c20.67,10.34,37.54,11.37,49.18,3.59.11-.07.25-.16.45-.31.59-.43,1.68-1.31,3.8-3.28,24.12-22.35,45.55-48.75,56.86-59.77.18-.17-.02-.23-.55-.2-6.77.47-67.08,16.94-66.57,16.8,0,0-2.8-7.36-5.45-19.11-2.17-9.63-4.23-22.22-4.56-36.14-.23-9.58.36-19.78,2.31-30.09,1.88-9.96,5.02-20,9.91-29.66,1.34-2.65,2.82-5.28,4.43-7.86,2.56-4.09,5.09-8.14,7.61-12.14,3.59-5.69,7.14-11.29,10.68-16.74,4.64-7.18,9.25-14.11,13.83-20.73,4.59-6.63,9.16-12.94,13.72-18.84,4.31-5.58,8.63-10.8,12.97-15.59,6.59-7.32,13.23-13.64,19.97-18.71,5.76-4.35,11.59-7.78,17.52-10.16,3.97-1.59,7.8-3.6,11.47-5.94,9.28-5.88,17.53-13.78,24.5-21.85,7.39-8.57,13.32-17.32,17.46-24.07,3.32-5.41,5.49-9.52,6.34-11.23,1.29-2.58,4.58-6.66,8.9-10.3,5.62-4.73,13-8.72,19.97-7.66,1.47.21,2.92.66,4.33,1.36,6.43,3.21,26.85,15.75,46.21,27.84"/>
        <path class="cls-1" d="M726.04,39.89c9.36,5.84,18.48,11.58,25.65,16.1"/>
        <path class="cls-1" d="M610.81,257.23c3.83-2.63,7.84-5.27,12.01-7.88,3.87-2.43,7.88-4.83,12.03-7.19,4.47-2.54,9.12-5.03,13.92-7.45,4.23-2.14,8.58-4.22,13.06-6.22,5.21-2.33,10.59-4.55,16.13-6.65,5.04-1.91,10.22-3.71,15.52-5.38,4.48-1.42,9.05-2.74,13.72-3.95,5.86-1.53,11.86-2.9,18-4.07,4.68-.89,9.44-1.68,14.28-2.34,6.34-.87,12.81-1.53,19.42-1.94,5.12-.34,10.32-.53,15.6-.57,4.6-.04,9.27.04,13.99.25,4.61.2,9.26.51,13.98.96,7.68.71,15.5,1.76,23.47,3.16"/>
        <path class="cls-1" d="M550.33,310.9s.05-.07.16-.2c1.24-1.52,9.56-11.52,24.21-24.85,4.67-4.25,9.99-8.84,15.92-13.6,4.12-3.31,8.54-6.7,13.24-10.11,2.25-1.63,4.57-3.27,6.95-4.9"/>
        <path class="cls-1" d="M935.5,251.5s-36.5,69.36-79.67,115.85-59.77,83.02-49.81,112.9c9.96,29.89,3.32,29.89,29.89,76.38,2.28,4,5.05,7.89,8.19,11.68,33.03,39.72,108.14,67.2,110.13,67.93.03.01.04.01.04.01"/>
        <line class="cls-1" x1="1128.13" y1="360.71" x2="1161.33" y2="407.2"/>
        <path class="cls-1" d="M975.37,450.37s-13.28-39.85,23.25-56.45c36.53-16.61,53.13,9.96,53.13,9.96,0,0,23.74,23.24,6.64,49.81-17.1,26.56-39.41,21.41-49.81,19.92-23.24-3.32-33.21-23.24-33.21-23.24Z"/>
        <path class="cls-1" d="M490.56,373.99s-.03.04-.05.06c-5.71,6.84-9.24,13.41-11.45,18.59-.73,1.69-1.31,3.24-1.79,4.6-2.32,6.69-4.37,12.59-3.32,19.92.87,6.01,3.05,7.69,11.72,20.85.5.76,1.02,1.56,1.57,2.4,4.7,7.23,7.37,11.84,9.34,15.04,2.63,4.26,4.01,6.03,7.26,8.2,4.86,3.24,8.88,9,11.17,13.64,1.35,2.72,2.11,5.05,2.11,6.28,0,13.29,6.64,9.97,0,23.25-2.05,4.11,3.76-.45-9.96,29.88"/>
        <path class="cls-1" d="M1204.5,466.97s-.07.03-.22.08c-4.06,1.46-63.33,23.1-76.15,49.23"/>
        <path class="cls-1" d="M751.69,55.99h.01c1.02,1.47,77.7,111.17,50.8,148.51"/>
        <path class="cls-1" d="M726.03,39.87h.01v.02c1.1,1.54,78.94,110.86,62.46,163.61"/>
        <path class="cls-1" d="M675.5,10.68s84.48,93.2,99,192.82"/>
        <path class="cls-1" d="M655.54,18.35s92.68,94.51,103.32,185.23"/>
        <path class="cls-1" d="M640.29,39.87s82.45,81.36,99.19,166.23h0"/>
        <path class="cls-1" d="M622.82,63.93h0c1.15,1.07,74.89,69.21,102.37,144.51"/>
        <path class="cls-1" d="M598.33,85.79s63.18,38.29,108.87,126.72"/>
        <path class="cls-1" d="M569.34,101.89s93.27,56.04,124.14,114.57c.01.01.01.03.02.04"/>
        <path class="cls-1" d="M549.37,120.6s100.14,52.04,128.59,101.24"/>
        <path class="cls-1" d="M536.41,136.19s97.43,49.74,125.42,92.3h0"/>
        <path class="cls-1" d="M522.68,155.03s101.67,46.65,126.09,79.67"/>
        <path class="cls-1" d="M508.85,175.76s104.27,37.51,126,66.4"/>
        <path class="cls-1" d="M498.17,192.5s114.13,38.47,124.65,56.85"/>
        <path class="cls-1" d="M486.15,212.51s121.99,27.59,124.66,44.72h0"/>
        <path class="cls-1" d="M476.22,242.16s111.44,4.43,127.64,19.98"/>
        <path class="cls-1" d="M473.9,272.25h0c1.26-.22,90.76-15.3,116.71,0h.01"/>
        <path class="cls-1" d="M478.47,308.39s60.84-21.03,96.23-22.54"/>
      </g>
    </g>
  </g>
</svg>